<mxfile host="app.diagrams.net" modified="2022-03-30T12:09:57.372Z" agent="5.0 (Windows NT 10.0; Win64; x64) AppleWebKit/537.36 (KHTML, like Gecko) Chrome/99.0.4844.84 Safari/537.36" etag="AtX1E2j__eCF4il6Vldu" version="17.2.2" type="github" pages="2">
  <diagram id="4RgC27p_yy9X4nTqJ3Af" name="Page-1">
    <mxGraphModel dx="1935" dy="474" grid="1" gridSize="10" guides="1" tooltips="1" connect="1" arrows="1" fold="1" page="1" pageScale="1" pageWidth="827" pageHeight="1169" math="0" shadow="0">
      <root>
        <mxCell id="0" />
        <mxCell id="1" parent="0" />
        <mxCell id="3XYh_gyi4DEBj83XPiTH-36" value="Chi Nhanh" style="whiteSpace=wrap;html=1;align=center;" parent="1" vertex="1">
          <mxGeometry x="620" y="110" width="100" height="40" as="geometry" />
        </mxCell>
        <mxCell id="3XYh_gyi4DEBj83XPiTH-37" value="MACN" style="ellipse;whiteSpace=wrap;html=1;align=center;fontStyle=4;" parent="1" vertex="1">
          <mxGeometry x="640" y="10" width="60" height="30" as="geometry" />
        </mxCell>
        <mxCell id="3XYh_gyi4DEBj83XPiTH-38" value="" style="endArrow=none;html=1;rounded=0;entryX=0.5;entryY=0;entryDx=0;entryDy=0;exitX=0.5;exitY=1;exitDx=0;exitDy=0;" parent="1" source="3XYh_gyi4DEBj83XPiTH-37" target="3XYh_gyi4DEBj83XPiTH-36" edge="1">
          <mxGeometry relative="1" as="geometry">
            <mxPoint x="340" y="150" as="sourcePoint" />
            <mxPoint x="500" y="150" as="targetPoint" />
          </mxGeometry>
        </mxCell>
        <mxCell id="3XYh_gyi4DEBj83XPiTH-39" value="TenCN" style="ellipse;whiteSpace=wrap;html=1;align=center;" parent="1" vertex="1">
          <mxGeometry x="700" y="10" width="40" height="30" as="geometry" />
        </mxCell>
        <mxCell id="3XYh_gyi4DEBj83XPiTH-40" value="DiaChi" style="ellipse;whiteSpace=wrap;html=1;align=center;" parent="1" vertex="1">
          <mxGeometry x="740" y="20" width="50" height="20" as="geometry" />
        </mxCell>
        <mxCell id="3XYh_gyi4DEBj83XPiTH-42" value="SDT" style="ellipse;whiteSpace=wrap;html=1;align=center;" parent="1" vertex="1">
          <mxGeometry x="770" y="50" width="30" height="20" as="geometry" />
        </mxCell>
        <mxCell id="3XYh_gyi4DEBj83XPiTH-44" value="" style="endArrow=none;html=1;rounded=0;entryX=0.5;entryY=1;entryDx=0;entryDy=0;exitX=0.5;exitY=0;exitDx=0;exitDy=0;" parent="1" source="3XYh_gyi4DEBj83XPiTH-36" target="3XYh_gyi4DEBj83XPiTH-39" edge="1">
          <mxGeometry relative="1" as="geometry">
            <mxPoint x="430" y="90" as="sourcePoint" />
            <mxPoint x="480" y="120" as="targetPoint" />
          </mxGeometry>
        </mxCell>
        <mxCell id="3XYh_gyi4DEBj83XPiTH-45" value="" style="endArrow=none;html=1;rounded=0;entryX=0.5;entryY=1;entryDx=0;entryDy=0;exitX=0.5;exitY=0;exitDx=0;exitDy=0;" parent="1" source="3XYh_gyi4DEBj83XPiTH-36" target="3XYh_gyi4DEBj83XPiTH-40" edge="1">
          <mxGeometry relative="1" as="geometry">
            <mxPoint x="470" y="110" as="sourcePoint" />
            <mxPoint x="490" y="130" as="targetPoint" />
          </mxGeometry>
        </mxCell>
        <mxCell id="3XYh_gyi4DEBj83XPiTH-46" value="" style="endArrow=none;html=1;rounded=0;entryX=0;entryY=1;entryDx=0;entryDy=0;exitX=0.5;exitY=0;exitDx=0;exitDy=0;" parent="1" source="3XYh_gyi4DEBj83XPiTH-36" target="3XYh_gyi4DEBj83XPiTH-42" edge="1">
          <mxGeometry relative="1" as="geometry">
            <mxPoint x="470" y="110" as="sourcePoint" />
            <mxPoint x="500" y="140" as="targetPoint" />
          </mxGeometry>
        </mxCell>
        <mxCell id="3XYh_gyi4DEBj83XPiTH-49" value="Tai Khoan" style="whiteSpace=wrap;html=1;align=center;" parent="1" vertex="1">
          <mxGeometry x="117.5" y="110" width="100" height="40" as="geometry" />
        </mxCell>
        <mxCell id="3XYh_gyi4DEBj83XPiTH-50" value="MATK" style="ellipse;whiteSpace=wrap;html=1;align=center;fontStyle=4;" parent="1" vertex="1">
          <mxGeometry x="200" y="20" width="60" height="30" as="geometry" />
        </mxCell>
        <mxCell id="3XYh_gyi4DEBj83XPiTH-52" value="NgayMo" style="ellipse;whiteSpace=wrap;html=1;align=center;" parent="1" vertex="1">
          <mxGeometry x="150" y="10" width="50" height="30" as="geometry" />
        </mxCell>
        <mxCell id="3XYh_gyi4DEBj83XPiTH-53" value="NgayDaoHan" style="ellipse;whiteSpace=wrap;html=1;align=center;" parent="1" vertex="1">
          <mxGeometry x="30" y="50" width="90" height="30" as="geometry" />
        </mxCell>
        <mxCell id="3XYh_gyi4DEBj83XPiTH-54" value="TienGui" style="ellipse;whiteSpace=wrap;html=1;align=center;" parent="1" vertex="1">
          <mxGeometry x="90" y="25" width="50" height="20" as="geometry" />
        </mxCell>
        <mxCell id="3XYh_gyi4DEBj83XPiTH-59" value="Táº¡i" style="shape=rhombus;perimeter=rhombusPerimeter;whiteSpace=wrap;html=1;align=center;" parent="1" vertex="1">
          <mxGeometry x="360" y="110" width="70" height="40" as="geometry" />
        </mxCell>
        <mxCell id="3XYh_gyi4DEBj83XPiTH-60" value="" style="endArrow=none;html=1;rounded=0;exitX=0.5;exitY=1;exitDx=0;exitDy=0;entryX=0.5;entryY=0;entryDx=0;entryDy=0;" parent="1" source="3XYh_gyi4DEBj83XPiTH-50" target="3XYh_gyi4DEBj83XPiTH-49" edge="1">
          <mxGeometry relative="1" as="geometry">
            <mxPoint x="340" y="150" as="sourcePoint" />
            <mxPoint x="500" y="150" as="targetPoint" />
          </mxGeometry>
        </mxCell>
        <mxCell id="3XYh_gyi4DEBj83XPiTH-61" value="" style="endArrow=none;html=1;rounded=0;exitX=0.5;exitY=1;exitDx=0;exitDy=0;entryX=0.5;entryY=0;entryDx=0;entryDy=0;" parent="1" source="3XYh_gyi4DEBj83XPiTH-52" target="3XYh_gyi4DEBj83XPiTH-49" edge="1">
          <mxGeometry relative="1" as="geometry">
            <mxPoint x="240" y="60" as="sourcePoint" />
            <mxPoint x="220" y="110" as="targetPoint" />
          </mxGeometry>
        </mxCell>
        <mxCell id="3XYh_gyi4DEBj83XPiTH-62" value="" style="endArrow=none;html=1;rounded=0;exitX=0.5;exitY=1;exitDx=0;exitDy=0;entryX=0.5;entryY=0;entryDx=0;entryDy=0;" parent="1" source="3XYh_gyi4DEBj83XPiTH-54" target="3XYh_gyi4DEBj83XPiTH-49" edge="1">
          <mxGeometry relative="1" as="geometry">
            <mxPoint x="250" y="70" as="sourcePoint" />
            <mxPoint x="230" y="120" as="targetPoint" />
          </mxGeometry>
        </mxCell>
        <mxCell id="3XYh_gyi4DEBj83XPiTH-63" value="" style="endArrow=none;html=1;rounded=0;exitX=0.5;exitY=1;exitDx=0;exitDy=0;entryX=0.5;entryY=0;entryDx=0;entryDy=0;" parent="1" source="3XYh_gyi4DEBj83XPiTH-53" target="3XYh_gyi4DEBj83XPiTH-49" edge="1">
          <mxGeometry relative="1" as="geometry">
            <mxPoint x="260" y="80" as="sourcePoint" />
            <mxPoint x="240" y="130" as="targetPoint" />
          </mxGeometry>
        </mxCell>
        <mxCell id="3XYh_gyi4DEBj83XPiTH-64" value="" style="endArrow=none;html=1;rounded=0;entryX=0;entryY=0.5;entryDx=0;entryDy=0;exitX=1;exitY=0.5;exitDx=0;exitDy=0;" parent="1" source="3XYh_gyi4DEBj83XPiTH-49" target="3XYh_gyi4DEBj83XPiTH-59" edge="1">
          <mxGeometry relative="1" as="geometry">
            <mxPoint x="340" y="150" as="sourcePoint" />
            <mxPoint x="500" y="150" as="targetPoint" />
          </mxGeometry>
        </mxCell>
        <mxCell id="3XYh_gyi4DEBj83XPiTH-65" value="(1,1)" style="resizable=0;html=1;align=right;verticalAlign=bottom;" parent="3XYh_gyi4DEBj83XPiTH-64" connectable="0" vertex="1">
          <mxGeometry x="1" relative="1" as="geometry" />
        </mxCell>
        <mxCell id="3XYh_gyi4DEBj83XPiTH-66" value="" style="endArrow=none;html=1;rounded=0;entryX=1;entryY=0.5;entryDx=0;entryDy=0;exitX=0;exitY=0.5;exitDx=0;exitDy=0;" parent="1" source="3XYh_gyi4DEBj83XPiTH-36" target="3XYh_gyi4DEBj83XPiTH-59" edge="1">
          <mxGeometry relative="1" as="geometry">
            <mxPoint x="230" y="140" as="sourcePoint" />
            <mxPoint x="360" y="140" as="targetPoint" />
          </mxGeometry>
        </mxCell>
        <mxCell id="3XYh_gyi4DEBj83XPiTH-67" value="(1,n)" style="resizable=0;html=1;align=right;verticalAlign=bottom;" parent="3XYh_gyi4DEBj83XPiTH-66" connectable="0" vertex="1">
          <mxGeometry x="1" relative="1" as="geometry">
            <mxPoint x="20" as="offset" />
          </mxGeometry>
        </mxCell>
        <mxCell id="3XYh_gyi4DEBj83XPiTH-68" value="Giao Dich" style="whiteSpace=wrap;html=1;align=center;" parent="1" vertex="1">
          <mxGeometry x="295" y="300" width="100" height="40" as="geometry" />
        </mxCell>
        <mxCell id="3XYh_gyi4DEBj83XPiTH-69" value="NgayGiaoDich" style="ellipse;whiteSpace=wrap;html=1;align=center;" parent="1" vertex="1">
          <mxGeometry x="140" y="280" width="100" height="30" as="geometry" />
        </mxCell>
        <mxCell id="3XYh_gyi4DEBj83XPiTH-70" value="ChiNhanhGiaoDich" style="ellipse;whiteSpace=wrap;html=1;align=center;" parent="1" vertex="1">
          <mxGeometry x="130" y="320" width="110" height="30" as="geometry" />
        </mxCell>
        <mxCell id="3XYh_gyi4DEBj83XPiTH-71" value="LoaiGiaoDich" style="ellipse;whiteSpace=wrap;html=1;align=center;" parent="1" vertex="1">
          <mxGeometry x="150" y="370" width="100" height="30" as="geometry" />
        </mxCell>
        <mxCell id="3XYh_gyi4DEBj83XPiTH-72" value="" style="endArrow=none;html=1;rounded=0;exitX=0;exitY=0.5;exitDx=0;exitDy=0;entryX=1;entryY=0.5;entryDx=0;entryDy=0;" parent="1" source="3XYh_gyi4DEBj83XPiTH-68" target="3XYh_gyi4DEBj83XPiTH-69" edge="1">
          <mxGeometry relative="1" as="geometry">
            <mxPoint x="240" y="60" as="sourcePoint" />
            <mxPoint x="180" y="120" as="targetPoint" />
          </mxGeometry>
        </mxCell>
        <mxCell id="3XYh_gyi4DEBj83XPiTH-73" value="" style="endArrow=none;html=1;rounded=0;entryX=1;entryY=0.5;entryDx=0;entryDy=0;exitX=0;exitY=0.5;exitDx=0;exitDy=0;" parent="1" source="3XYh_gyi4DEBj83XPiTH-68" target="3XYh_gyi4DEBj83XPiTH-70" edge="1">
          <mxGeometry relative="1" as="geometry">
            <mxPoint x="340" y="320" as="sourcePoint" />
            <mxPoint x="100" y="305" as="targetPoint" />
          </mxGeometry>
        </mxCell>
        <mxCell id="3XYh_gyi4DEBj83XPiTH-74" value="" style="endArrow=none;html=1;rounded=0;exitX=1;exitY=0.5;exitDx=0;exitDy=0;entryX=0;entryY=0.5;entryDx=0;entryDy=0;" parent="1" source="3XYh_gyi4DEBj83XPiTH-71" target="3XYh_gyi4DEBj83XPiTH-68" edge="1">
          <mxGeometry relative="1" as="geometry">
            <mxPoint x="140" y="330" as="sourcePoint" />
            <mxPoint x="110" y="315" as="targetPoint" />
          </mxGeometry>
        </mxCell>
        <mxCell id="3XYh_gyi4DEBj83XPiTH-75" value="Thuc Hien" style="shape=rhombus;perimeter=rhombusPerimeter;whiteSpace=wrap;html=1;align=center;" parent="1" vertex="1">
          <mxGeometry x="300" y="215" width="80" height="30" as="geometry" />
        </mxCell>
        <mxCell id="3XYh_gyi4DEBj83XPiTH-76" value="" style="endArrow=none;html=1;rounded=0;entryX=0;entryY=0.5;entryDx=0;entryDy=0;exitX=0.5;exitY=1;exitDx=0;exitDy=0;" parent="1" source="3XYh_gyi4DEBj83XPiTH-49" target="3XYh_gyi4DEBj83XPiTH-75" edge="1">
          <mxGeometry relative="1" as="geometry">
            <mxPoint x="230" y="140" as="sourcePoint" />
            <mxPoint x="360" y="140" as="targetPoint" />
            <Array as="points">
              <mxPoint x="168" y="230" />
            </Array>
          </mxGeometry>
        </mxCell>
        <mxCell id="3XYh_gyi4DEBj83XPiTH-77" value="(1,n)" style="resizable=0;html=1;align=right;verticalAlign=bottom;" parent="3XYh_gyi4DEBj83XPiTH-76" connectable="0" vertex="1">
          <mxGeometry x="1" relative="1" as="geometry">
            <mxPoint x="-3" as="offset" />
          </mxGeometry>
        </mxCell>
        <mxCell id="3XYh_gyi4DEBj83XPiTH-78" value="" style="endArrow=none;html=1;rounded=0;entryX=0.5;entryY=1;entryDx=0;entryDy=0;" parent="1" target="3XYh_gyi4DEBj83XPiTH-75" edge="1">
          <mxGeometry relative="1" as="geometry">
            <mxPoint x="338" y="300" as="sourcePoint" />
            <mxPoint x="370" y="150" as="targetPoint" />
          </mxGeometry>
        </mxCell>
        <mxCell id="3XYh_gyi4DEBj83XPiTH-79" value="(1,1)" style="resizable=0;html=1;align=right;verticalAlign=bottom;" parent="3XYh_gyi4DEBj83XPiTH-78" connectable="0" vertex="1">
          <mxGeometry x="1" relative="1" as="geometry">
            <mxPoint x="-2" y="17" as="offset" />
          </mxGeometry>
        </mxCell>
        <mxCell id="3XYh_gyi4DEBj83XPiTH-80" value="Co" style="shape=rhombus;perimeter=rhombusPerimeter;whiteSpace=wrap;html=1;align=center;" parent="1" vertex="1">
          <mxGeometry x="490" y="215" width="70" height="30" as="geometry" />
        </mxCell>
        <mxCell id="3XYh_gyi4DEBj83XPiTH-81" value="" style="endArrow=none;html=1;rounded=0;entryX=1;entryY=0.5;entryDx=0;entryDy=0;exitX=0;exitY=0.75;exitDx=0;exitDy=0;" parent="1" source="3XYh_gyi4DEBj83XPiTH-36" target="3XYh_gyi4DEBj83XPiTH-80" edge="1">
          <mxGeometry relative="1" as="geometry">
            <mxPoint x="630" y="140" as="sourcePoint" />
            <mxPoint x="480" y="140" as="targetPoint" />
            <Array as="points">
              <mxPoint x="590" y="140" />
              <mxPoint x="590" y="230" />
            </Array>
          </mxGeometry>
        </mxCell>
        <mxCell id="3XYh_gyi4DEBj83XPiTH-82" value="(1,n)" style="resizable=0;html=1;align=right;verticalAlign=bottom;" parent="3XYh_gyi4DEBj83XPiTH-81" connectable="0" vertex="1">
          <mxGeometry x="1" relative="1" as="geometry">
            <mxPoint x="20" as="offset" />
          </mxGeometry>
        </mxCell>
        <mxCell id="3XYh_gyi4DEBj83XPiTH-83" value="" style="endArrow=none;html=1;rounded=0;entryX=0;entryY=0.5;entryDx=0;entryDy=0;exitX=1;exitY=0.5;exitDx=0;exitDy=0;" parent="1" source="3XYh_gyi4DEBj83XPiTH-68" target="3XYh_gyi4DEBj83XPiTH-80" edge="1">
          <mxGeometry relative="1" as="geometry">
            <mxPoint x="640" y="150" as="sourcePoint" />
            <mxPoint x="490" y="150" as="targetPoint" />
            <Array as="points">
              <mxPoint x="460" y="320" />
              <mxPoint x="460" y="230" />
            </Array>
          </mxGeometry>
        </mxCell>
        <mxCell id="3XYh_gyi4DEBj83XPiTH-84" value="(1,n)" style="resizable=0;html=1;align=right;verticalAlign=bottom;" parent="3XYh_gyi4DEBj83XPiTH-83" connectable="0" vertex="1">
          <mxGeometry x="1" relative="1" as="geometry">
            <mxPoint x="1" y="-2" as="offset" />
          </mxGeometry>
        </mxCell>
        <mxCell id="3XYh_gyi4DEBj83XPiTH-85" value="Nhan Vien" style="whiteSpace=wrap;html=1;align=center;" parent="1" vertex="1">
          <mxGeometry x="620" y="310" width="100" height="40" as="geometry" />
        </mxCell>
        <mxCell id="3XYh_gyi4DEBj83XPiTH-86" value="MaNV" style="ellipse;whiteSpace=wrap;html=1;align=center;fontStyle=4;" parent="1" vertex="1">
          <mxGeometry x="810" y="260" width="50" height="20" as="geometry" />
        </mxCell>
        <mxCell id="3XYh_gyi4DEBj83XPiTH-87" value="HoTen" style="ellipse;whiteSpace=wrap;html=1;align=center;" parent="1" vertex="1">
          <mxGeometry x="810" y="290" width="40" height="20" as="geometry" />
        </mxCell>
        <mxCell id="3XYh_gyi4DEBj83XPiTH-88" value="DiaChi" style="ellipse;whiteSpace=wrap;html=1;align=center;" parent="1" vertex="1">
          <mxGeometry x="800" y="320" width="50" height="20" as="geometry" />
        </mxCell>
        <mxCell id="3XYh_gyi4DEBj83XPiTH-89" value="DT" style="ellipse;whiteSpace=wrap;html=1;align=center;" parent="1" vertex="1">
          <mxGeometry x="777" y="350" width="50" height="20" as="geometry" />
        </mxCell>
        <mxCell id="3XYh_gyi4DEBj83XPiTH-90" value="Email" style="ellipse;whiteSpace=wrap;html=1;align=center;" parent="1" vertex="1">
          <mxGeometry x="777" y="380" width="50" height="20" as="geometry" />
        </mxCell>
        <mxCell id="3XYh_gyi4DEBj83XPiTH-91" value="NBA" style="ellipse;whiteSpace=wrap;html=1;align=center;" parent="1" vertex="1">
          <mxGeometry x="777" y="410" width="50" height="20" as="geometry" />
        </mxCell>
        <mxCell id="3XYh_gyi4DEBj83XPiTH-92" value="LoaiNV" style="ellipse;whiteSpace=wrap;html=1;align=center;" parent="1" vertex="1">
          <mxGeometry x="760" y="440" width="50" height="20" as="geometry" />
        </mxCell>
        <mxCell id="3XYh_gyi4DEBj83XPiTH-93" value="" style="endArrow=none;html=1;rounded=0;entryX=0;entryY=0.5;entryDx=0;entryDy=0;exitX=1;exitY=0.5;exitDx=0;exitDy=0;" parent="1" source="3XYh_gyi4DEBj83XPiTH-85" target="3XYh_gyi4DEBj83XPiTH-86" edge="1">
          <mxGeometry relative="1" as="geometry">
            <mxPoint x="340" y="250" as="sourcePoint" />
            <mxPoint x="500" y="250" as="targetPoint" />
          </mxGeometry>
        </mxCell>
        <mxCell id="3XYh_gyi4DEBj83XPiTH-94" value="" style="endArrow=none;html=1;rounded=0;entryX=0;entryY=0.5;entryDx=0;entryDy=0;exitX=1;exitY=0.5;exitDx=0;exitDy=0;" parent="1" source="3XYh_gyi4DEBj83XPiTH-85" target="3XYh_gyi4DEBj83XPiTH-87" edge="1">
          <mxGeometry relative="1" as="geometry">
            <mxPoint x="700" y="340" as="sourcePoint" />
            <mxPoint x="750" y="240" as="targetPoint" />
          </mxGeometry>
        </mxCell>
        <mxCell id="3XYh_gyi4DEBj83XPiTH-97" value="" style="endArrow=none;html=1;rounded=0;entryX=0;entryY=0.5;entryDx=0;entryDy=0;exitX=1;exitY=0.5;exitDx=0;exitDy=0;" parent="1" source="3XYh_gyi4DEBj83XPiTH-85" target="3XYh_gyi4DEBj83XPiTH-88" edge="1">
          <mxGeometry relative="1" as="geometry">
            <mxPoint x="710" y="350" as="sourcePoint" />
            <mxPoint x="760" y="250" as="targetPoint" />
          </mxGeometry>
        </mxCell>
        <mxCell id="3XYh_gyi4DEBj83XPiTH-98" value="" style="endArrow=none;html=1;rounded=0;entryX=0;entryY=0.5;entryDx=0;entryDy=0;exitX=1;exitY=0.5;exitDx=0;exitDy=0;" parent="1" source="3XYh_gyi4DEBj83XPiTH-85" target="3XYh_gyi4DEBj83XPiTH-89" edge="1">
          <mxGeometry relative="1" as="geometry">
            <mxPoint x="720" y="360" as="sourcePoint" />
            <mxPoint x="770" y="260" as="targetPoint" />
          </mxGeometry>
        </mxCell>
        <mxCell id="3XYh_gyi4DEBj83XPiTH-99" value="" style="endArrow=none;html=1;rounded=0;entryX=0;entryY=0.5;entryDx=0;entryDy=0;exitX=1;exitY=0.5;exitDx=0;exitDy=0;" parent="1" source="3XYh_gyi4DEBj83XPiTH-85" target="3XYh_gyi4DEBj83XPiTH-90" edge="1">
          <mxGeometry relative="1" as="geometry">
            <mxPoint x="730" y="370" as="sourcePoint" />
            <mxPoint x="780" y="270" as="targetPoint" />
          </mxGeometry>
        </mxCell>
        <mxCell id="3XYh_gyi4DEBj83XPiTH-100" value="" style="endArrow=none;html=1;rounded=0;entryX=0;entryY=0.5;entryDx=0;entryDy=0;exitX=1;exitY=0.5;exitDx=0;exitDy=0;" parent="1" source="3XYh_gyi4DEBj83XPiTH-85" target="3XYh_gyi4DEBj83XPiTH-91" edge="1">
          <mxGeometry relative="1" as="geometry">
            <mxPoint x="740" y="380" as="sourcePoint" />
            <mxPoint x="790" y="280" as="targetPoint" />
          </mxGeometry>
        </mxCell>
        <mxCell id="3XYh_gyi4DEBj83XPiTH-101" value="" style="endArrow=none;html=1;rounded=0;entryX=1;entryY=0.5;entryDx=0;entryDy=0;exitX=0;exitY=0.15;exitDx=0;exitDy=0;exitPerimeter=0;" parent="1" source="3XYh_gyi4DEBj83XPiTH-92" target="3XYh_gyi4DEBj83XPiTH-85" edge="1">
          <mxGeometry relative="1" as="geometry">
            <mxPoint x="750" y="390" as="sourcePoint" />
            <mxPoint x="800" y="290" as="targetPoint" />
          </mxGeometry>
        </mxCell>
        <mxCell id="3XYh_gyi4DEBj83XPiTH-103" value="Lam Viec" style="shape=rhombus;perimeter=rhombusPerimeter;whiteSpace=wrap;html=1;align=center;" parent="1" vertex="1">
          <mxGeometry x="625" y="210" width="90" height="40" as="geometry" />
        </mxCell>
        <mxCell id="3XYh_gyi4DEBj83XPiTH-104" value="" style="endArrow=none;html=1;rounded=0;entryX=0.5;entryY=0;entryDx=0;entryDy=0;exitX=0.5;exitY=1;exitDx=0;exitDy=0;" parent="1" source="3XYh_gyi4DEBj83XPiTH-36" target="3XYh_gyi4DEBj83XPiTH-103" edge="1">
          <mxGeometry relative="1" as="geometry">
            <mxPoint x="630" y="140" as="sourcePoint" />
            <mxPoint x="440" y="140" as="targetPoint" />
          </mxGeometry>
        </mxCell>
        <mxCell id="3XYh_gyi4DEBj83XPiTH-105" value="(1,n)" style="resizable=0;html=1;align=right;verticalAlign=bottom;" parent="3XYh_gyi4DEBj83XPiTH-104" connectable="0" vertex="1">
          <mxGeometry x="1" relative="1" as="geometry">
            <mxPoint x="29" as="offset" />
          </mxGeometry>
        </mxCell>
        <mxCell id="3XYh_gyi4DEBj83XPiTH-106" value="" style="endArrow=none;html=1;rounded=0;entryX=0.5;entryY=1;entryDx=0;entryDy=0;exitX=0.5;exitY=0;exitDx=0;exitDy=0;" parent="1" source="3XYh_gyi4DEBj83XPiTH-85" target="3XYh_gyi4DEBj83XPiTH-103" edge="1">
          <mxGeometry relative="1" as="geometry">
            <mxPoint x="640" y="150" as="sourcePoint" />
            <mxPoint x="450" y="150" as="targetPoint" />
          </mxGeometry>
        </mxCell>
        <mxCell id="3XYh_gyi4DEBj83XPiTH-107" value="(1,1)" style="resizable=0;html=1;align=right;verticalAlign=bottom;" parent="3XYh_gyi4DEBj83XPiTH-106" connectable="0" vertex="1">
          <mxGeometry x="1" relative="1" as="geometry">
            <mxPoint x="26" y="16" as="offset" />
          </mxGeometry>
        </mxCell>
        <mxCell id="3XYh_gyi4DEBj83XPiTH-108" value="Tien Hanh" style="shape=rhombus;perimeter=rhombusPerimeter;whiteSpace=wrap;html=1;align=center;" parent="1" vertex="1">
          <mxGeometry x="490" y="380" width="90" height="40" as="geometry" />
        </mxCell>
        <mxCell id="3XYh_gyi4DEBj83XPiTH-109" value="Phe Duyet" style="shape=rhombus;perimeter=rhombusPerimeter;whiteSpace=wrap;html=1;align=center;" parent="1" vertex="1">
          <mxGeometry x="490" y="440" width="90" height="30" as="geometry" />
        </mxCell>
        <mxCell id="3XYh_gyi4DEBj83XPiTH-110" value="" style="endArrow=none;html=1;rounded=0;entryX=1;entryY=0.5;entryDx=0;entryDy=0;exitX=0.5;exitY=1;exitDx=0;exitDy=0;" parent="1" source="3XYh_gyi4DEBj83XPiTH-85" target="3XYh_gyi4DEBj83XPiTH-108" edge="1">
          <mxGeometry relative="1" as="geometry">
            <mxPoint x="630" y="140" as="sourcePoint" />
            <mxPoint x="440" y="140" as="targetPoint" />
            <Array as="points">
              <mxPoint x="670" y="400" />
            </Array>
          </mxGeometry>
        </mxCell>
        <mxCell id="3XYh_gyi4DEBj83XPiTH-111" value="(1,n)" style="resizable=0;html=1;align=right;verticalAlign=bottom;" parent="3XYh_gyi4DEBj83XPiTH-110" connectable="0" vertex="1">
          <mxGeometry x="1" relative="1" as="geometry">
            <mxPoint x="20" as="offset" />
          </mxGeometry>
        </mxCell>
        <mxCell id="3XYh_gyi4DEBj83XPiTH-112" value="" style="endArrow=none;html=1;rounded=0;entryX=1;entryY=0.5;entryDx=0;entryDy=0;exitX=0.65;exitY=1;exitDx=0;exitDy=0;exitPerimeter=0;" parent="1" source="3XYh_gyi4DEBj83XPiTH-85" target="3XYh_gyi4DEBj83XPiTH-109" edge="1">
          <mxGeometry relative="1" as="geometry">
            <mxPoint x="710" y="370" as="sourcePoint" />
            <mxPoint x="460" y="410" as="targetPoint" />
            <Array as="points">
              <mxPoint x="686" y="455" />
            </Array>
          </mxGeometry>
        </mxCell>
        <mxCell id="3XYh_gyi4DEBj83XPiTH-113" value="(1,n)" style="resizable=0;html=1;align=right;verticalAlign=bottom;" parent="3XYh_gyi4DEBj83XPiTH-112" connectable="0" vertex="1">
          <mxGeometry x="1" relative="1" as="geometry">
            <mxPoint x="20" as="offset" />
          </mxGeometry>
        </mxCell>
        <mxCell id="3XYh_gyi4DEBj83XPiTH-114" value="" style="endArrow=none;html=1;rounded=0;entryX=0;entryY=0.5;entryDx=0;entryDy=0;exitX=0.625;exitY=1;exitDx=0;exitDy=0;exitPerimeter=0;" parent="1" source="3XYh_gyi4DEBj83XPiTH-68" target="3XYh_gyi4DEBj83XPiTH-108" edge="1">
          <mxGeometry relative="1" as="geometry">
            <mxPoint x="690" y="370" as="sourcePoint" />
            <mxPoint x="470" y="420" as="targetPoint" />
            <Array as="points">
              <mxPoint x="408" y="400" />
            </Array>
          </mxGeometry>
        </mxCell>
        <mxCell id="3XYh_gyi4DEBj83XPiTH-115" value="(1,1)" style="resizable=0;html=1;align=right;verticalAlign=bottom;" parent="3XYh_gyi4DEBj83XPiTH-114" connectable="0" vertex="1">
          <mxGeometry x="1" relative="1" as="geometry">
            <mxPoint x="1" y="-1" as="offset" />
          </mxGeometry>
        </mxCell>
        <mxCell id="3XYh_gyi4DEBj83XPiTH-116" value="" style="endArrow=none;html=1;rounded=0;entryX=0;entryY=0.5;entryDx=0;entryDy=0;exitX=0.385;exitY=1.025;exitDx=0;exitDy=0;exitPerimeter=0;" parent="1" source="3XYh_gyi4DEBj83XPiTH-68" target="3XYh_gyi4DEBj83XPiTH-109" edge="1">
          <mxGeometry relative="1" as="geometry">
            <mxPoint x="700" y="380" as="sourcePoint" />
            <mxPoint x="480" y="430" as="targetPoint" />
            <Array as="points">
              <mxPoint x="384" y="455" />
            </Array>
          </mxGeometry>
        </mxCell>
        <mxCell id="3XYh_gyi4DEBj83XPiTH-117" value="(1,1)" style="resizable=0;html=1;align=right;verticalAlign=bottom;" parent="3XYh_gyi4DEBj83XPiTH-116" connectable="0" vertex="1">
          <mxGeometry x="1" relative="1" as="geometry">
            <mxPoint x="1" y="-3" as="offset" />
          </mxGeometry>
        </mxCell>
        <mxCell id="3XYh_gyi4DEBj83XPiTH-118" value="Khach Hang" style="whiteSpace=wrap;html=1;align=center;" parent="1" vertex="1">
          <mxGeometry x="10" y="450" width="100" height="40" as="geometry" />
        </mxCell>
        <mxCell id="3XYh_gyi4DEBj83XPiTH-119" value="MaKH" style="ellipse;whiteSpace=wrap;html=1;align=center;fontStyle=4;" parent="1" vertex="1">
          <mxGeometry x="-90" y="460" width="60" height="20" as="geometry" />
        </mxCell>
        <mxCell id="3XYh_gyi4DEBj83XPiTH-120" value="" style="endArrow=none;html=1;rounded=0;entryX=0;entryY=0.5;entryDx=0;entryDy=0;exitX=1;exitY=0.5;exitDx=0;exitDy=0;" parent="1" source="3XYh_gyi4DEBj83XPiTH-119" target="3XYh_gyi4DEBj83XPiTH-118" edge="1">
          <mxGeometry relative="1" as="geometry">
            <mxPoint x="320" y="350" as="sourcePoint" />
            <mxPoint x="480" y="350" as="targetPoint" />
          </mxGeometry>
        </mxCell>
        <mxCell id="3XYh_gyi4DEBj83XPiTH-121" value="Mo" style="shape=rhombus;perimeter=rhombusPerimeter;whiteSpace=wrap;html=1;align=center;" parent="1" vertex="1">
          <mxGeometry x="15" y="290" width="95" height="40" as="geometry" />
        </mxCell>
        <mxCell id="3XYh_gyi4DEBj83XPiTH-122" value="" style="endArrow=none;html=1;rounded=0;entryX=0.5;entryY=0;entryDx=0;entryDy=0;exitX=0.345;exitY=1.025;exitDx=0;exitDy=0;exitPerimeter=0;" parent="1" source="3XYh_gyi4DEBj83XPiTH-49" target="3XYh_gyi4DEBj83XPiTH-121" edge="1">
          <mxGeometry relative="1" as="geometry">
            <mxPoint x="227.5" y="140" as="sourcePoint" />
            <mxPoint x="370" y="140" as="targetPoint" />
            <Array as="points">
              <mxPoint x="152" y="170" />
              <mxPoint x="60" y="170" />
            </Array>
          </mxGeometry>
        </mxCell>
        <mxCell id="3XYh_gyi4DEBj83XPiTH-123" value="(1,1)" style="resizable=0;html=1;align=right;verticalAlign=bottom;" parent="3XYh_gyi4DEBj83XPiTH-122" connectable="0" vertex="1">
          <mxGeometry x="1" relative="1" as="geometry">
            <mxPoint x="-7" y="-2" as="offset" />
          </mxGeometry>
        </mxCell>
        <mxCell id="3XYh_gyi4DEBj83XPiTH-124" value="" style="endArrow=none;html=1;rounded=0;entryX=0.5;entryY=1;entryDx=0;entryDy=0;exitX=0.5;exitY=0;exitDx=0;exitDy=0;" parent="1" source="3XYh_gyi4DEBj83XPiTH-118" target="3XYh_gyi4DEBj83XPiTH-121" edge="1">
          <mxGeometry relative="1" as="geometry">
            <mxPoint x="-232.5" y="250" as="sourcePoint" />
            <mxPoint x="-90" y="250" as="targetPoint" />
          </mxGeometry>
        </mxCell>
        <mxCell id="3XYh_gyi4DEBj83XPiTH-125" value="(1,n)" style="resizable=0;html=1;align=right;verticalAlign=bottom;" parent="3XYh_gyi4DEBj83XPiTH-124" connectable="0" vertex="1">
          <mxGeometry x="1" relative="1" as="geometry">
            <mxPoint x="-3" y="16" as="offset" />
          </mxGeometry>
        </mxCell>
        <mxCell id="3XYh_gyi4DEBj83XPiTH-127" style="edgeStyle=none;rounded=0;orthogonalLoop=1;jettySize=auto;html=1;exitX=0.5;exitY=0;exitDx=0;exitDy=0;entryX=0.5;entryY=1;entryDx=0;entryDy=0;" parent="1" source="3XYh_gyi4DEBj83XPiTH-126" target="3XYh_gyi4DEBj83XPiTH-118" edge="1">
          <mxGeometry relative="1" as="geometry">
            <Array as="points">
              <mxPoint x="-80" y="520" />
              <mxPoint x="60" y="520" />
            </Array>
          </mxGeometry>
        </mxCell>
        <mxCell id="3XYh_gyi4DEBj83XPiTH-126" value="Ca Nhan" style="whiteSpace=wrap;html=1;align=center;" parent="1" vertex="1">
          <mxGeometry x="-130" y="545" width="100" height="40" as="geometry" />
        </mxCell>
        <mxCell id="3XYh_gyi4DEBj83XPiTH-129" style="edgeStyle=none;rounded=0;orthogonalLoop=1;jettySize=auto;html=1;exitX=0.5;exitY=0;exitDx=0;exitDy=0;" parent="1" source="3XYh_gyi4DEBj83XPiTH-128" edge="1">
          <mxGeometry relative="1" as="geometry">
            <mxPoint x="60" y="490" as="targetPoint" />
            <Array as="points">
              <mxPoint x="220" y="520" />
              <mxPoint x="60" y="520" />
            </Array>
          </mxGeometry>
        </mxCell>
        <mxCell id="3XYh_gyi4DEBj83XPiTH-128" value="To Chuc / Doanh Nghiep" style="whiteSpace=wrap;html=1;align=center;" parent="1" vertex="1">
          <mxGeometry x="170" y="545" width="100" height="40" as="geometry" />
        </mxCell>
        <mxCell id="3XYh_gyi4DEBj83XPiTH-131" value="HoTen" style="ellipse;whiteSpace=wrap;html=1;align=center;" parent="1" vertex="1">
          <mxGeometry x="-210" y="640" width="50" height="20" as="geometry" />
        </mxCell>
        <mxCell id="3XYh_gyi4DEBj83XPiTH-132" value="Email" style="ellipse;whiteSpace=wrap;html=1;align=center;" parent="1" vertex="1">
          <mxGeometry x="-170" y="670" width="60" height="20" as="geometry" />
        </mxCell>
        <mxCell id="3XYh_gyi4DEBj83XPiTH-133" value="DiaChi" style="ellipse;whiteSpace=wrap;html=1;align=center;" parent="1" vertex="1">
          <mxGeometry x="-90" y="680" width="45" height="20" as="geometry" />
        </mxCell>
        <mxCell id="3XYh_gyi4DEBj83XPiTH-134" value="" style="endArrow=none;html=1;rounded=0;entryX=0.5;entryY=1;entryDx=0;entryDy=0;" parent="1" target="3XYh_gyi4DEBj83XPiTH-126" edge="1">
          <mxGeometry relative="1" as="geometry">
            <mxPoint x="-202.1114561800016" y="615.5278640450003" as="sourcePoint" />
            <mxPoint x="-50" y="440" as="targetPoint" />
          </mxGeometry>
        </mxCell>
        <mxCell id="3XYh_gyi4DEBj83XPiTH-135" value="" style="endArrow=none;html=1;rounded=0;entryX=0.5;entryY=1;entryDx=0;entryDy=0;exitX=0.74;exitY=0.15;exitDx=0;exitDy=0;exitPerimeter=0;" parent="1" source="3XYh_gyi4DEBj83XPiTH-131" target="3XYh_gyi4DEBj83XPiTH-126" edge="1">
          <mxGeometry relative="1" as="geometry">
            <mxPoint x="-192.1114561800016" y="625.5278640450003" as="sourcePoint" />
            <mxPoint x="-70" y="595" as="targetPoint" />
          </mxGeometry>
        </mxCell>
        <mxCell id="3XYh_gyi4DEBj83XPiTH-136" value="" style="endArrow=none;html=1;rounded=0;entryX=0.5;entryY=1;entryDx=0;entryDy=0;exitX=0.5;exitY=0;exitDx=0;exitDy=0;" parent="1" source="3XYh_gyi4DEBj83XPiTH-132" target="3XYh_gyi4DEBj83XPiTH-126" edge="1">
          <mxGeometry relative="1" as="geometry">
            <mxPoint x="-182.1114561800016" y="635.5278640450003" as="sourcePoint" />
            <mxPoint x="-60" y="605" as="targetPoint" />
          </mxGeometry>
        </mxCell>
        <mxCell id="3XYh_gyi4DEBj83XPiTH-137" value="" style="endArrow=none;html=1;rounded=0;entryX=0.5;entryY=1;entryDx=0;entryDy=0;exitX=0.5;exitY=0;exitDx=0;exitDy=0;" parent="1" source="3XYh_gyi4DEBj83XPiTH-133" target="3XYh_gyi4DEBj83XPiTH-126" edge="1">
          <mxGeometry relative="1" as="geometry">
            <mxPoint x="-172.1114561800016" y="645.5278640450003" as="sourcePoint" />
            <mxPoint x="-50" y="615" as="targetPoint" />
          </mxGeometry>
        </mxCell>
        <mxCell id="3XYh_gyi4DEBj83XPiTH-138" value="TenDN" style="ellipse;whiteSpace=wrap;html=1;align=center;" parent="1" vertex="1">
          <mxGeometry x="172.5" y="680" width="45" height="20" as="geometry" />
        </mxCell>
        <mxCell id="3XYh_gyi4DEBj83XPiTH-139" value="CMND" style="ellipse;whiteSpace=wrap;html=1;align=center;fontStyle=4;" parent="1" vertex="1">
          <mxGeometry x="-250" y="610" width="60" height="20" as="geometry" />
        </mxCell>
        <mxCell id="3XYh_gyi4DEBj83XPiTH-140" value="MaDN" style="ellipse;whiteSpace=wrap;html=1;align=center;fontStyle=4;" parent="1" vertex="1">
          <mxGeometry x="100" y="630" width="60" height="20" as="geometry" />
        </mxCell>
        <mxCell id="3XYh_gyi4DEBj83XPiTH-141" value="DT" style="ellipse;whiteSpace=wrap;html=1;align=center;" parent="1" vertex="1">
          <mxGeometry x="250" y="670" width="45" height="20" as="geometry" />
        </mxCell>
        <mxCell id="3XYh_gyi4DEBj83XPiTH-142" value="DC" style="ellipse;whiteSpace=wrap;html=1;align=center;" parent="1" vertex="1">
          <mxGeometry x="300" y="670" width="45" height="20" as="geometry" />
        </mxCell>
        <mxCell id="3XYh_gyi4DEBj83XPiTH-143" value="" style="endArrow=none;html=1;rounded=0;entryX=0.5;entryY=1;entryDx=0;entryDy=0;exitX=0.5;exitY=0;exitDx=0;exitDy=0;" parent="1" source="3XYh_gyi4DEBj83XPiTH-140" target="3XYh_gyi4DEBj83XPiTH-128" edge="1">
          <mxGeometry relative="1" as="geometry">
            <mxPoint x="-57.5" y="690" as="sourcePoint" />
            <mxPoint x="-70" y="595" as="targetPoint" />
          </mxGeometry>
        </mxCell>
        <mxCell id="3XYh_gyi4DEBj83XPiTH-144" value="" style="endArrow=none;html=1;rounded=0;entryX=0.5;entryY=1;entryDx=0;entryDy=0;exitX=0.5;exitY=0;exitDx=0;exitDy=0;" parent="1" source="3XYh_gyi4DEBj83XPiTH-138" target="3XYh_gyi4DEBj83XPiTH-128" edge="1">
          <mxGeometry relative="1" as="geometry">
            <mxPoint x="-47.5" y="700" as="sourcePoint" />
            <mxPoint x="-60" y="605" as="targetPoint" />
          </mxGeometry>
        </mxCell>
        <mxCell id="3XYh_gyi4DEBj83XPiTH-145" value="" style="endArrow=none;html=1;rounded=0;exitX=0.5;exitY=0;exitDx=0;exitDy=0;entryX=0.5;entryY=1;entryDx=0;entryDy=0;" parent="1" source="3XYh_gyi4DEBj83XPiTH-141" target="3XYh_gyi4DEBj83XPiTH-128" edge="1">
          <mxGeometry relative="1" as="geometry">
            <mxPoint x="195" y="680" as="sourcePoint" />
            <mxPoint x="220" y="580" as="targetPoint" />
          </mxGeometry>
        </mxCell>
        <mxCell id="3XYh_gyi4DEBj83XPiTH-146" value="" style="endArrow=none;html=1;rounded=0;entryX=0.5;entryY=0;entryDx=0;entryDy=0;exitX=0.5;exitY=1;exitDx=0;exitDy=0;" parent="1" source="3XYh_gyi4DEBj83XPiTH-128" target="3XYh_gyi4DEBj83XPiTH-142" edge="1">
          <mxGeometry relative="1" as="geometry">
            <mxPoint x="205" y="690" as="sourcePoint" />
            <mxPoint x="230" y="595" as="targetPoint" />
          </mxGeometry>
        </mxCell>
        <mxCell id="lpd8bgwUy1RCVT4EXNuO-1" value="SoTienHienCo" style="ellipse;whiteSpace=wrap;html=1;align=center;" vertex="1" parent="1">
          <mxGeometry x="270" y="30" width="100" height="30" as="geometry" />
        </mxCell>
        <mxCell id="lpd8bgwUy1RCVT4EXNuO-2" value="KiHan" style="ellipse;whiteSpace=wrap;html=1;align=center;" vertex="1" parent="1">
          <mxGeometry x="-60" y="70" width="100" height="30" as="geometry" />
        </mxCell>
        <mxCell id="lpd8bgwUy1RCVT4EXNuO-3" value="LaiSuat" style="ellipse;whiteSpace=wrap;html=1;align=center;" vertex="1" parent="1">
          <mxGeometry x="-80" y="115" width="100" height="30" as="geometry" />
        </mxCell>
        <mxCell id="lpd8bgwUy1RCVT4EXNuO-4" value="" style="endArrow=none;html=1;rounded=0;exitX=1;exitY=0.5;exitDx=0;exitDy=0;entryX=0;entryY=0.5;entryDx=0;entryDy=0;" edge="1" parent="1" source="lpd8bgwUy1RCVT4EXNuO-2" target="3XYh_gyi4DEBj83XPiTH-49">
          <mxGeometry relative="1" as="geometry">
            <mxPoint x="85" y="90" as="sourcePoint" />
            <mxPoint x="177.5" y="120" as="targetPoint" />
          </mxGeometry>
        </mxCell>
        <mxCell id="lpd8bgwUy1RCVT4EXNuO-5" value="" style="endArrow=none;html=1;rounded=0;exitX=1;exitY=0.5;exitDx=0;exitDy=0;entryX=0;entryY=0.5;entryDx=0;entryDy=0;" edge="1" parent="1" source="lpd8bgwUy1RCVT4EXNuO-3" target="3XYh_gyi4DEBj83XPiTH-49">
          <mxGeometry relative="1" as="geometry">
            <mxPoint x="95" y="100" as="sourcePoint" />
            <mxPoint x="120" y="130" as="targetPoint" />
          </mxGeometry>
        </mxCell>
        <mxCell id="lpd8bgwUy1RCVT4EXNuO-6" value="" style="endArrow=none;html=1;rounded=0;exitX=0.5;exitY=0;exitDx=0;exitDy=0;entryX=0.5;entryY=1;entryDx=0;entryDy=0;" edge="1" parent="1" source="3XYh_gyi4DEBj83XPiTH-49" target="lpd8bgwUy1RCVT4EXNuO-1">
          <mxGeometry relative="1" as="geometry">
            <mxPoint x="105" y="110" as="sourcePoint" />
            <mxPoint x="197.5" y="140" as="targetPoint" />
          </mxGeometry>
        </mxCell>
      </root>
    </mxGraphModel>
  </diagram>
  <diagram id="2-Wd0GdcHGyBpi4QDMh-" name="Page-2">
    <mxGraphModel dx="868" dy="474" grid="1" gridSize="10" guides="1" tooltips="1" connect="1" arrows="1" fold="1" page="1" pageScale="1" pageWidth="827" pageHeight="1169" math="0" shadow="0">
      <root>
        <mxCell id="0" />
        <mxCell id="1" parent="0" />
      </root>
    </mxGraphModel>
  </diagram>
</mxfile>
